<?xml version="1.0" encoding="UTF-8"?>
<svg id="Layer_1" data-name="Layer 1" xmlns="http://www.w3.org/2000/svg" viewBox="0 0 1024 1024">
  <defs>
    <style>
      .cls-1 {
        fill: none;
      }
    </style>
  </defs>
  <path class="cls-1" d="M1024,0v1024H0V0h1024ZM806.43,463.45c-31.86,36.21-61.88,41.39-91.62-1.76-39.56-57.4-56.9-201.03-112.5-233.5-94.43-55.15-136.86,141.99-158.55,197.08-14.28,36.28-48.12,106.6-94.39,61.36-37.9-37.05-53.67-134.32-108.84-143.75-74.35-12.72-85.25,108.27-167.65,112.44-13.56.69-25.14-3.45-38.36-4.32l1.46,2.51-3.98,1.51,5.01,5.71-2.01,8.27c8.59.05,20.02,8.05,28.81,10.7,64.11,19.29,77.33-12.2,119.18-45.19,77.12-60.79,113.08,69.76,137.15,115.86,42.52,81.44,93.88,65.36,131.33-8.38,38.23-75.25,96.24-318.92,192.4-123.36,20.5,41.69,46.94,143.85,101.74,149.26,73.89,7.29,83.28-107.43,142.05-117.73,26.71-4.68,44.66,16.8,68.88,20.51,3.29.5,12.14-.52,14.85-.74.71-.06.08,2.17,1.96,1.99s3.65-3.14,5.12-3.65c.53-.18,4.57,2.52,8.52-3.78l-4.01-3.48-3.98,1.99,1.99-4.49-9.49-6.52-1.47,1.96-.05-3.94c-29.6-13.61-42.45-49.33-79.44-51.06-43.45-2.03-60.21,37.31-84.12,64.49Z"/>
  <path fill="white" d="M806.43,463.45c23.91-27.18,40.68-66.52,84.12-64.49,36.99,1.73,49.84,37.45,79.44,51.06l.05,3.94,1.47-1.96,9.49,6.52-1.99,4.49,3.98-1.99,4.01,3.48c-3.95,6.29-7.99,3.6-8.52,3.78-1.48.5-3.24,3.47-5.12,3.65s-1.25-2.05-1.96-1.99c-2.71.21-11.56,1.24-14.85.74-24.22-3.71-42.17-25.19-68.88-20.51-58.78,10.3-68.16,125.03-142.05,117.73-54.8-5.41-81.24-107.58-101.74-149.26-96.16-195.56-154.17,48.1-192.4,123.36-37.46,73.73-88.81,89.82-131.33,8.38-24.07-46.1-60.03-176.65-137.15-115.86-41.85,32.99-55.07,64.48-119.18,45.19-8.79-2.65-20.23-10.65-28.81-10.7l2.01-8.27-5.01-5.71,3.98-1.51-1.46-2.51c13.21.88,24.8,5.01,38.36,4.32,82.4-4.17,93.3-125.15,167.65-112.44,55.18,9.44,70.95,106.71,108.84,143.75,46.27,45.23,80.11-25.09,94.39-61.36,21.69-55.09,64.13-252.23,158.55-197.08,55.6,32.48,72.94,176.1,112.5,233.5,29.74,43.15,59.76,37.97,91.62,1.76Z"/>
</svg>